<svg xmlns="http://www.w3.org/2000/svg" viewBox="0 0 476.34 325.68"><defs><style>.cls-3{fill:url(#Безымянный_градиент_20)}.cls-4{fill:#ffed7d}</style><linearGradient id="Безымянный_градиент_4" x1="559.94" y1="202.58" x2="-68.69" y2="199.97" gradientUnits="userSpaceOnUse"><stop offset=".02" stop-color="#844d24"/><stop offset=".04" stop-color="#f7e68a"/><stop offset=".07" stop-color="#8e5b22"/><stop offset=".09" stop-color="#9a682b"/><stop offset=".12" stop-color="#ba8a43"/><stop offset=".16" stop-color="#e8ba65"/><stop offset=".32" stop-color="#f8e889"/><stop offset=".72" stop-color="#e6b964"/></linearGradient><linearGradient id="Безымянный_градиент_7" x1="8.92" y1="79.97" x2="467.42" y2="79.97" gradientUnits="userSpaceOnUse"><stop offset="0" stop-color="#daa528"/><stop offset="0" stop-color="#daa529"/><stop offset=".11" stop-color="#eed05a"/><stop offset=".19" stop-color="#faeb79"/><stop offset=".23" stop-color="#fff584"/><stop offset=".27" stop-color="#f7e471"/><stop offset=".36" stop-color="#e7c249"/><stop offset=".43" stop-color="#dead31"/><stop offset=".48" stop-color="#daa528"/><stop offset=".6" stop-color="#ecc952"/><stop offset=".7" stop-color="#fae371"/><stop offset=".76" stop-color="#ffed7d"/><stop offset=".81" stop-color="#fdea79"/><stop offset=".87" stop-color="#f8e06e"/><stop offset=".92" stop-color="#f0d05a"/><stop offset=".97" stop-color="#e4b93f"/><stop offset="1" stop-color="#daa528"/></linearGradient><linearGradient id="Безымянный_градиент_20" x1="488.49" y1="165.23" x2="-40.51" y2="160.23" gradientUnits="userSpaceOnUse"><stop offset="0" stop-color="#8e5b22"/><stop offset=".01" stop-color="#98682c"/><stop offset=".02" stop-color="#b18a45"/><stop offset=".04" stop-color="#dac06d"/><stop offset=".06" stop-color="#f7e68a"/><stop offset=".16" stop-color="#e8ba65"/><stop offset=".32" stop-color="#f8e889"/><stop offset=".72" stop-color="#e6b964"/></linearGradient></defs><g id="Слой_2" data-name="Слой 2"><g id="Objects"><path d="M30.32 171.67v24.76h28.62v-24.76h7.73v59.17h-7.73v-27.75H30.32v27.74h-7.64v-59.16zm59.16 40.55l-6.15 18.61h-7.9l20.1-59.17h9.22l20.19 59.17h-8.16l-6.32-18.61zm19.4-6l-5.79-17c-1.32-3.86-2.19-7.37-3.07-10.8h-.18c-.88 3.51-1.84 7.11-3 10.71l-5.79 17.12zm24.76-33.85a88.49 88.49 0 0 1 14.66-1.14c7.55 0 13.08 1.76 16.59 4.92 3.25 2.81 5.18 7.11 5.18 12.38s-1.58 9.57-4.56 12.64c-4 4.3-10.62 6.5-18.08 6.5a26.32 26.32 0 0 1-6.15-.53v23.7h-7.64zm7.64 28.53a25.58 25.58 0 0 0 6.32.62c9.22 0 14.84-4.48 14.84-12.64 0-7.81-5.53-11.59-14-11.59a32.05 32.05 0 0 0-7.2.61zm39.06-28.53a88.49 88.49 0 0 1 14.66-1.14c7.55 0 13.08 1.76 16.59 4.92 3.25 2.81 5.18 7.11 5.18 12.38s-1.58 9.57-4.56 12.64c-4 4.3-10.62 6.5-18.08 6.5a26.32 26.32 0 0 1-6.15-.53v23.7h-7.64zM188 200.9a25.58 25.58 0 0 0 6.32.62c9.22 0 14.84-4.48 14.84-12.64 0-7.81-5.53-11.59-14-11.59a32.05 32.05 0 0 0-7.2.61zm51.41 29.93v-25.1l-18.7-34.06h8.69l8.35 16.33c2.28 4.48 4 8.08 5.88 12.2h.18c1.67-3.86 3.69-7.72 6-12.2l8.51-16.33H267l-19.84 34v25.19zM300 178.16h-18v-6.5h43.8v6.5h-18.09v52.67H300zm40-6.49v59.17h-7.64v-59.17zm63.21 33.18c-.44-8.25-1-18.17-.88-25.54h-.26c-2 6.94-4.48 14.31-7.46 22.47l-10.45 28.71h-5.79l-9.57-28.19c-2.81-8.34-5.18-16-6.85-23h-.18c-.18 7.37-.61 17.29-1.14 26.16l-1.58 25.37h-7.29l4.13-59.17h9.74l10.1 28.62c2.46 7.29 4.48 13.78 6 19.93h.27c1.49-6 3.6-12.46 6.23-19.93l10.53-28.62h9.74l3.69 59.17h-7.49zm51.35-1.76h-23v21.33h25.63v6.41h-33.27v-59.16h32v6.41h-24.36v18.7h23z" fill="url(#Безымянный_градиент_4)"/><path d="M23.52 149.78h429.31a14.62 14.62 0 0 0 12.4-6.49c3.06-4.47 2.91-10.77-.35-14.66a10.63 10.63 0 0 0-7.45-3.63 9.37 9.37 0 0 0-7.08 2.43 8.16 8.16 0 0 0-2.62 6.55 6.91 6.91 0 0 0 3 5.05 2.64 2.64 0 1 0 2-4.29 2.6 2.6 0 0 0-1.14.26 3.31 3.31 0 0 1-.43-1.34 4.7 4.7 0 0 1 1.54-3.69 6 6 0 0 1 4.47-1.48 7.07 7.07 0 0 1 5 2.38c2.28 2.73 2.35 7.21.14 10.43a11.21 11.21 0 0 1-9.51 5h-43.36a26.73 26.73 0 0 0 13.67-17c2.23-9.13-1.31-19.29-8.62-24.72-7.61-5.65-18.8-5.59-26 .14-6.74 5.35-9.12 15.15-5.41 22.32a15.66 15.66 0 0 0 10.3 7.76 14.07 14.07 0 0 0 10.32-1.33 3.38 3.38 0 1 0-3.86-2.15 11.18 11.18 0 0 1-5.66.07 12.12 12.12 0 0 1-8-6c-3-5.73-1-13.62 4.48-18 6-4.78 15.37-4.81 21.76-.07 6.21 4.6 9.21 13.27 7.31 21.07a23.48 23.48 0 0 1-15.88 16.39 25.24 25.24 0 0 1-19.64-2.24c-7.52-4.34-12.3-12.29-16.93-20l-.27-.45-1.48-2.45a52.51 52.51 0 0 0-8.26-10.45 32.29 32.29 0 0 0-11.14-7.55 35.14 35.14 0 0 0-8.09-2.4 1.2 1.2 0 0 0-.31 0 41.5 41.5 0 0 0-14.34.09l.65-.45a28.31 28.31 0 0 0 11.45-17 18.68 18.68 0 0 0-3.83-15.78 15.94 15.94 0 0 0-15.45-5.1 14.19 14.19 0 0 0-9.33 7.7 69.59 69.59 0 0 0-137.4 0 14.19 14.19 0 0 0-9.33-7.7 15.94 15.94 0 0 0-15.45 5.17 18.67 18.67 0 0 0-3.83 15.78 28.32 28.32 0 0 0 11.46 17l.65.45a41.52 41.52 0 0 0-14.34-.09 1.2 1.2 0 0 0-.31 0 35.08 35.08 0 0 0-8.07 2.39 32.25 32.25 0 0 0-11.13 7.54 52.58 52.58 0 0 0-8.28 10.47q-.84 1.37-1.67 2.76l-.09.15c-4.63 7.69-9.41 15.64-16.92 20a25.24 25.24 0 0 1-19.64 2.24 23.48 23.48 0 0 1-15.88-16.39c-1.91-7.8 1.1-16.47 7.31-21.07 6.38-4.74 15.74-4.71 21.76.07 5.48 4.35 7.44 12.24 4.48 18a12.12 12.12 0 0 1-8 6 11.2 11.2 0 0 1-5.66-.07 3.34 3.34 0 0 0 .21-1.16 3.39 3.39 0 1 0-4.07 3.31 14.07 14.07 0 0 0 10.32 1.2A15.66 15.66 0 0 0 93.28 127c3.71-7.16 1.33-17-5.41-22.32-7.22-5.73-18.41-5.79-26-.14-7.33 5.46-10.87 15.58-8.65 24.71a26.74 26.74 0 0 0 13.67 17H23.52a11.2 11.2 0 0 1-9.51-5c-2.2-3.22-2.14-7.7.14-10.43a7.07 7.07 0 0 1 5-2.38 5.93 5.93 0 0 1 4.43 1.56 4.7 4.7 0 0 1 1.54 3.7 3.32 3.32 0 0 1-.43 1.34 2.61 2.61 0 0 0-1.14-.26 2.64 2.64 0 1 0 2 4.29 6.91 6.91 0 0 0 3-5.05 8.16 8.16 0 0 0-2.55-6.59 9.38 9.38 0 0 0-7.09-2.43 10.63 10.63 0 0 0-7.45 3.63c-3.26 3.89-3.4 10.19-.35 14.66a14.61 14.61 0 0 0 12.41 6.49zm337.76-20a17.63 17.63 0 0 1-9.49 13.92c-5.36 2.53-12 1.44-15.89-2.6s-4.28-11.17-.67-15.29a10.12 10.12 0 0 1 7.59-3.2 10 10 0 0 1 4.08.86 3.35 3.35 0 0 0-.45 1.69 3.39 3.39 0 1 0 4.67-3.12 12.84 12.84 0 0 0-8.28-2.94h-.06a13.62 13.62 0 0 0-10.18 4.39c-4.76 5.42-4.41 14.59.76 20a15.28 15.28 0 0 0 3.5 2.71h-78.24A69.46 69.46 0 0 0 288.3 128a1.3 1.3 0 0 0 .28-.22l1.39-1.47c9.71-10.22 18.1-19.05 30.25-22.6a36.94 36.94 0 0 1 26.28 2 33.56 33.56 0 0 1 7.4 5.14 25.1 25.1 0 0 1 2.1 2.26 23 23 0 0 1 5.28 16.72zM288 127.35zm76.76-2.12c4.7 7.81 9.66 15.75 17.68 20.37q.61.35 1.26.68h-29.2a21.4 21.4 0 0 0 10.25-16.07 23.35 23.35 0 0 0 .02-4.98zM172.07 79.76a66.1 66.1 0 1 1 66.1 66.1 66.18 66.18 0 0 1-66.1-66.1zm-60.49 50.45a21.41 21.41 0 0 0 10.25 16.07H92.64q.65-.33 1.26-.68c8-4.62 13-12.56 17.68-20.37a23.44 23.44 0 0 0 0 4.98zm74.8-3.91l1.39 1.46a1.31 1.31 0 0 0 .28.22 69.46 69.46 0 0 0 29.67 18.3h-78.23a15.26 15.26 0 0 0 3.5-2.71c5.17-5.43 5.52-14.59.76-20a13.66 13.66 0 0 0-10.24-4.39 12.84 12.84 0 0 0-8.29 2.94 3.38 3.38 0 1 0 4.67 3.12 3.35 3.35 0 0 0-.45-1.69 10.43 10.43 0 0 1 11.67 2.33c3.61 4.12 3.31 11.12-.67 15.29s-10.53 5.13-15.89 2.6a17.63 17.63 0 0 1-9.49-13.92 23 23 0 0 1 5.28-16.73 24.94 24.94 0 0 1 2.09-2.25 33.65 33.65 0 0 1 7.41-5.15 37 37 0 0 1 26.28-2c12.16 3.52 20.55 12.35 30.26 22.58zm129.36-40.18a11.3 11.3 0 0 0 8.65-2.38 11 11 0 0 0 3.88-5.74 3.35 3.35 0 0 0 .54-1.83 3.39 3.39 0 1 0-4.91 3 8 8 0 0 1-1.67 1.83 7.77 7.77 0 0 1-5.94 1.68 9 9 0 0 1-7.11-9.11 10.46 10.46 0 0 1 7.87-9.2 12.35 12.35 0 0 1 12 4.05 15.1 15.1 0 0 1 3.06 12.77 24.77 24.77 0 0 1-10 14.87c-2.45 1.73-4.89 3.23-7.27 4.71a93 93 0 0 0-13.23 9.39l-1.29 1.09a69.44 69.44 0 0 0 7.55-30.51 12 12 0 0 0 7.87 5.38zm-140.9 24a93.07 93.07 0 0 0-13.24-9.39c-2.36-1.46-4.81-3-7.27-4.71a24.78 24.78 0 0 1-10-14.87 15.1 15.1 0 0 1 3.06-12.77 12.64 12.64 0 0 1 9.4-4.36 10.72 10.72 0 0 1 2.56.3 10.46 10.46 0 0 1 7.87 9.2 9 9 0 0 1-7.11 9.11 7.76 7.76 0 0 1-6-1.63 8 8 0 0 1-1.67-1.78 3.39 3.39 0 1 0-4.36-1.22 11 11 0 0 0 3.92 5.74 11.29 11.29 0 0 0 8.65 2.38 12 12 0 0 0 8-5.39 69.44 69.44 0 0 0 7.55 30.51z" fill="url(#Безымянный_градиент_7)"/><path class="cls-3" d="M364.61 251.91H263V253a1.73 1.73 0 0 0-.66 1.51 46 46 0 0 1-20.91 41.93c-1 .6-2 1.19-3.29 1.83-1.28-.65-2.33-1.23-3.29-1.83A46 46 0 0 1 214 254.5a1.73 1.73 0 0 0-.66-1.51v-1.08H111.73a14.62 14.62 0 0 0-12.4 6.5c-3.06 4.47-2.91 10.77.35 14.66a10.63 10.63 0 0 0 7.45 3.63 9.43 9.43 0 0 0 7.08-2.43 8.16 8.16 0 0 0 2.62-6.55 6.93 6.93 0 0 0-2.11-4.34 3.35 3.35 0 0 0-3-1.81 3.38 3.38 0 0 0 0 6.77 3.33 3.33 0 0 0 1.6-.4v.06a4.7 4.7 0 0 1-1.54 3.69 5.82 5.82 0 0 1-4.47 1.47 7.06 7.06 0 0 1-5-2.38c-2.28-2.73-2.35-7.21-.14-10.43a11.2 11.2 0 0 1 9.51-5h98.72a49.71 49.71 0 0 0 22.62 44l1.11.67a46.27 46.27 0 0 1-33.7-.22 1.84 1.84 0 0 0-.53-.23h-.08a42.39 42.39 0 0 1-5.21-2.61c-8.1-4.81-15.57-14.29-12.85-23.74a14.25 14.25 0 0 1 23.33-6.54c4.24 3.89 5.5 10.58 2.85 15.22a10.5 10.5 0 0 1-6.75 4.82 10 10 0 0 1-4.13.09 3.32 3.32 0 0 0 .14-1 3.38 3.38 0 1 0-4 3.32 12.84 12.84 0 0 0 8.76 1 14.07 14.07 0 0 0 9-6.5c3.48-6.1 2-14.5-3.53-19.53a17.79 17.79 0 0 0-29.54 16.06 66.51 66.51 0 0 0-7.61-8.32c-6.45-5.75-14-8.39-20.61-7.24a14.43 14.43 0 0 0-9.15 5.24 10.57 10.57 0 0 0-1.42 10.74 8.63 8.63 0 0 0 9.94 4.68 7.42 7.42 0 0 0 4.57-4.34 7.08 7.08 0 0 0 .46-3.72 2.38 2.38 0 0 0 0-.32 3.38 3.38 0 1 0-4 3.32 3.74 3.74 0 0 1-2.06 1.71 5.16 5.16 0 0 1-5.74-2.82 7.13 7.13 0 0 1 1-7.13 11.11 11.11 0 0 1 7-3.91c5.59-1 12 1.36 17.68 6.4a79.8 79.8 0 0 1 9.36 10.64c1.32 1.7 2.69 3.45 4.11 5.14 5.8 6.91 11.26 10.93 17.09 12.6a49.71 49.71 0 0 0 19 3.75 49.67 49.67 0 0 0 20.62-4.45 50 50 0 0 0 39.55.72c5.9-1.7 11.36-5.71 17.16-12.63 1.42-1.69 2.79-3.44 4.15-5.19a79.49 79.49 0 0 1 9.33-10.59c5.65-5 12.09-7.37 17.68-6.4a11.11 11.11 0 0 1 7 3.91 7.13 7.13 0 0 1 1 7.13 5.1 5.1 0 0 1-5.73 2.82 3.74 3.74 0 0 1-2.06-1.71 3.38 3.38 0 1 0-4-3.32 2.33 2.33 0 0 0 0 .32 7.08 7.08 0 0 0 .46 3.72 7.42 7.42 0 0 0 4.57 4.34 8.63 8.63 0 0 0 9.94-4.69 10.57 10.57 0 0 0-1.42-10.74 14.45 14.45 0 0 0-9.15-5.23c-6.65-1.15-14.16 1.49-20.61 7.24a66.69 66.69 0 0 0-7.61 8.31 17.78 17.78 0 0 0-29.54-16.06c-5.48 5-7 13.43-3.53 19.53a14.07 14.07 0 0 0 9 6.5 12.83 12.83 0 0 0 8.76-1 3.38 3.38 0 1 0-4-3.32 3.32 3.32 0 0 0 .14 1 10 10 0 0 1-4.13-.09 10.5 10.5 0 0 1-6.75-4.82c-2.64-4.64-1.39-11.33 2.85-15.22a14.25 14.25 0 0 1 23.33 6.54c2.73 9.44-4.75 18.92-12.85 23.74a42.63 42.63 0 0 1-5.16 2.6l-.21.06a1.6 1.6 0 0 0-.45.2 46.24 46.24 0 0 1-33.7.22l1.11-.67a49.71 49.71 0 0 0 22.62-44h98.66a11.2 11.2 0 0 1 9.51 5c2.2 3.22 2.14 7.7-.14 10.43a7.07 7.07 0 0 1-5 2.38 5.85 5.85 0 0 1-4.47-1.47A4.7 4.7 0 0 1 363 268v-.09a3.34 3.34 0 0 0 1.6.4 3.38 3.38 0 1 0 0-6.77 3.35 3.35 0 0 0-3 1.81 6.94 6.94 0 0 0-2.11 4.34 8.16 8.16 0 0 0 2.62 6.55 9.41 9.41 0 0 0 7.08 2.43 10.63 10.63 0 0 0 7.44-3.63c3.26-3.89 3.41-10.19.35-14.66a14.61 14.61 0 0 0-12.37-6.47zm-283.65-9.14h314.42v3.5H80.96z"/><path class="cls-3" d="M238.17 303.65l-1.39 1.81c-1.08 1.41-6.45 8.61-6.45 12.37a7.84 7.84 0 1 0 15.68 0c0-3.75-5.37-11-6.45-12.37zm4.34 14.19a4.34 4.34 0 1 1-8.68 0c0-1.29 1.76-4.65 4.34-8.34 2.58 3.69 4.34 7.05 4.34 8.34zm-4.34-26.65l1.39-1.81c1.25-1.64 12.25-16.21 12.25-23.14a13.64 13.64 0 1 0-27.28 0c0 7 11 21.51 12.25 23.14zm-10.14-25a10.14 10.14 0 0 1 20.27 0c0 4.1-6.13 13.62-10.14 19.14-4-5.48-10.16-15-10.16-19.1zM0 155.41h476.34v3.5H0zm23.52-5.63h429.31a14.62 14.62 0 0 0 12.4-6.49c3.06-4.47 2.91-10.77-.35-14.66a10.63 10.63 0 0 0-7.45-3.63 9.37 9.37 0 0 0-7.08 2.43 8.16 8.16 0 0 0-2.62 6.55 6.91 6.91 0 0 0 3 5.05 2.64 2.64 0 1 0 2-4.29 2.6 2.6 0 0 0-1.14.26 3.31 3.31 0 0 1-.43-1.34 4.7 4.7 0 0 1 1.54-3.69 6 6 0 0 1 4.47-1.48 7.07 7.07 0 0 1 5 2.38c2.28 2.73 2.35 7.21.14 10.43a11.21 11.21 0 0 1-9.51 5h-43.36a26.73 26.73 0 0 0 13.67-17c2.23-9.13-1.31-19.29-8.62-24.72-7.61-5.65-18.8-5.59-26 .14-6.74 5.35-9.12 15.15-5.41 22.32a15.66 15.66 0 0 0 10.3 7.76 14.07 14.07 0 0 0 10.32-1.33 3.38 3.38 0 1 0-3.86-2.15 11.18 11.18 0 0 1-5.66.07 12.12 12.12 0 0 1-8-6c-3-5.73-1-13.62 4.48-18 6-4.78 15.37-4.81 21.76-.07 6.21 4.6 9.21 13.27 7.31 21.07a23.48 23.48 0 0 1-15.88 16.39 25.24 25.24 0 0 1-19.64-2.24c-7.52-4.34-12.3-12.29-16.93-20l-.27-.45-1.48-2.45a52.51 52.51 0 0 0-8.26-10.45 32.29 32.29 0 0 0-11.14-7.55 35.14 35.14 0 0 0-8.09-2.4 1.2 1.2 0 0 0-.31 0 41.5 41.5 0 0 0-14.34.09l.65-.45a28.31 28.31 0 0 0 11.45-17 18.68 18.68 0 0 0-3.83-15.78 15.94 15.94 0 0 0-15.45-5.1 14.19 14.19 0 0 0-9.33 7.7 69.59 69.59 0 0 0-137.4 0 14.19 14.19 0 0 0-9.33-7.7 15.94 15.94 0 0 0-15.45 5.17 18.67 18.67 0 0 0-3.83 15.78 28.32 28.32 0 0 0 11.46 17l.65.45a41.52 41.52 0 0 0-14.34-.09 1.2 1.2 0 0 0-.31 0 35.08 35.08 0 0 0-8.07 2.39 32.25 32.25 0 0 0-11.13 7.54 52.58 52.58 0 0 0-8.28 10.47q-.84 1.37-1.67 2.76l-.09.15c-4.63 7.69-9.41 15.64-16.92 20a25.24 25.24 0 0 1-19.64 2.24 23.48 23.48 0 0 1-15.88-16.39c-1.91-7.8 1.1-16.47 7.31-21.07 6.38-4.74 15.74-4.71 21.76.07 5.48 4.35 7.44 12.24 4.48 18a12.12 12.12 0 0 1-8 6 11.2 11.2 0 0 1-5.66-.07 3.34 3.34 0 0 0 .21-1.16 3.39 3.39 0 1 0-4.07 3.31 14.07 14.07 0 0 0 10.32 1.2A15.66 15.66 0 0 0 93.28 127c3.71-7.16 1.33-17-5.41-22.32-7.22-5.73-18.41-5.79-26-.14-7.33 5.46-10.87 15.58-8.65 24.71a26.74 26.74 0 0 0 13.67 17H23.52a11.2 11.2 0 0 1-9.51-5c-2.2-3.22-2.14-7.7.14-10.43a7.07 7.07 0 0 1 5-2.38 5.93 5.93 0 0 1 4.43 1.56 4.7 4.7 0 0 1 1.54 3.7 3.32 3.32 0 0 1-.43 1.34 2.61 2.61 0 0 0-1.14-.26 2.64 2.64 0 1 0 2 4.29 6.91 6.91 0 0 0 3-5.05 8.16 8.16 0 0 0-2.55-6.59 9.38 9.38 0 0 0-7.09-2.43 10.63 10.63 0 0 0-7.45 3.63c-3.26 3.89-3.4 10.19-.35 14.66a14.61 14.61 0 0 0 12.41 6.49zm337.76-20a17.63 17.63 0 0 1-9.49 13.92c-5.36 2.53-12 1.44-15.89-2.6s-4.28-11.17-.67-15.29a10.12 10.12 0 0 1 7.59-3.2 10 10 0 0 1 4.08.86 3.35 3.35 0 0 0-.45 1.69 3.39 3.39 0 1 0 4.67-3.12 12.84 12.84 0 0 0-8.28-2.94h-.06a13.62 13.62 0 0 0-10.18 4.39c-4.76 5.42-4.41 14.59.76 20a15.28 15.28 0 0 0 3.5 2.71h-78.24A69.46 69.46 0 0 0 288.3 128a1.3 1.3 0 0 0 .28-.22l1.39-1.47c9.71-10.22 18.1-19.05 30.25-22.6a36.94 36.94 0 0 1 26.28 2 33.56 33.56 0 0 1 7.4 5.14 25.1 25.1 0 0 1 2.1 2.26 23 23 0 0 1 5.28 16.72zM288 127.35zm76.76-2.12c4.7 7.81 9.66 15.75 17.68 20.37q.61.35 1.26.68h-29.2a21.4 21.4 0 0 0 10.25-16.07 23.35 23.35 0 0 0 .02-4.98zM172.07 79.76a66.1 66.1 0 1 1 66.1 66.1 66.18 66.18 0 0 1-66.1-66.1zm-60.49 50.45a21.41 21.41 0 0 0 10.25 16.07H92.64q.65-.33 1.26-.68c8-4.62 13-12.56 17.68-20.37a23.44 23.44 0 0 0 0 4.98zm74.8-3.91l1.39 1.46a1.31 1.31 0 0 0 .28.22 69.46 69.46 0 0 0 29.67 18.3h-78.23a15.26 15.26 0 0 0 3.5-2.71c5.17-5.43 5.52-14.59.76-20a13.66 13.66 0 0 0-10.24-4.39 12.84 12.84 0 0 0-8.29 2.94 3.38 3.38 0 1 0 4.67 3.12 3.35 3.35 0 0 0-.45-1.69 10.43 10.43 0 0 1 11.67 2.33c3.61 4.12 3.31 11.12-.67 15.29s-10.53 5.13-15.89 2.6a17.63 17.63 0 0 1-9.49-13.92 23 23 0 0 1 5.28-16.73 24.94 24.94 0 0 1 2.09-2.25 33.65 33.65 0 0 1 7.41-5.15 37 37 0 0 1 26.28-2c12.16 3.52 20.55 12.35 30.26 22.58zm129.36-40.18a11.3 11.3 0 0 0 8.65-2.38 11 11 0 0 0 3.88-5.74 3.35 3.35 0 0 0 .54-1.83 3.39 3.39 0 1 0-4.91 3 8 8 0 0 1-1.67 1.83 7.77 7.77 0 0 1-5.94 1.68 9 9 0 0 1-7.11-9.11 10.46 10.46 0 0 1 7.87-9.2 12.35 12.35 0 0 1 12 4.05 15.1 15.1 0 0 1 3.06 12.77 24.77 24.77 0 0 1-10 14.87c-2.45 1.73-4.89 3.23-7.27 4.71a93 93 0 0 0-13.23 9.39l-1.29 1.09a69.44 69.44 0 0 0 7.55-30.51 12 12 0 0 0 7.87 5.38zm-140.9 24a93.07 93.07 0 0 0-13.24-9.39c-2.36-1.46-4.81-3-7.27-4.71a24.78 24.78 0 0 1-10-14.87 15.1 15.1 0 0 1 3.06-12.77 12.64 12.64 0 0 1 9.4-4.36 10.72 10.72 0 0 1 2.56.3 10.46 10.46 0 0 1 7.87 9.2 9 9 0 0 1-7.11 9.11 7.76 7.76 0 0 1-6-1.63 8 8 0 0 1-1.67-1.78 3.39 3.39 0 1 0-4.36-1.22 11 11 0 0 0 3.92 5.74 11.29 11.29 0 0 0 8.65 2.38 12 12 0 0 0 8-5.39 69.44 69.44 0 0 0 7.55 30.51z"/><path class="cls-3" d="M310.41 120.71a7.79 7.79 0 0 0-5.54 2.3c-2.67 2.66-4 11.56-4.19 13.31l-.3 2.27 2.26-.3c1.75-.23 10.65-1.52 13.31-4.19a7.84 7.84 0 0 0-5.54-13.39zm3.07 10.91c-.91.91-4.53 2-9 2.83.78-4.43 1.92-8.05 2.83-9a4.34 4.34 0 0 1 6.13 6.14zm-139.78 6.66l2.27.3-.3-2.27c-.23-1.76-1.53-10.65-4.19-13.31a7.84 7.84 0 0 0-11.09 11.09c2.66 2.67 11.55 3.91 13.31 4.19zm-10.83-12.8a4.34 4.34 0 0 1 6.13 0c.91.91 2 4.53 2.83 9-4.43-.78-8.05-1.92-9-2.83a4.34 4.34 0 0 1 .03-6.17z"/><circle class="cls-3" cx="168.85" cy="45.6" r="2.64"/><path class="cls-3" d="M308.89 51.25a2.64 2.64 0 1 0-1.7-.62 2.64 2.64 0 0 0 1.7.62zm-7.8-12.16a2.64 2.64 0 1 0-1-3.61 2.62 2.62 0 0 0 1 3.61zm-8.02-10.31a2.64 2.64 0 1 0-1.58-3.39 2.63 2.63 0 0 0 1.58 3.39zM283.39 20a2.64 2.64 0 1 0-1.71-1.09 2.64 2.64 0 0 0 1.71 1.09z"/><circle class="cls-3" cx="272.33" cy="10.43" r="2.64"/><path class="cls-3" d="M259.77 8.2a2.64 2.64 0 1 0-2.6-2.2 2.64 2.64 0 0 0 2.6 2.2zm-14.33-2.87a2.64 2.64 0 1 0-1.37-1.49 2.63 2.63 0 0 0 1.37 1.49zm-12.34-.04A2.64 2.64 0 1 0 230.8 4a2.63 2.63 0 0 0 2.3 1.29zm-13.32 2.05a2.64 2.64 0 1 0-2-.94 2.63 2.63 0 0 0 2 .94zM207 11.67h.23a2.64 2.64 0 1 0-.23 0zm-13.11 6.13a2.63 2.63 0 0 0 1.32.36 2.66 2.66 0 0 0 .69-.09 2.64 2.64 0 1 0-2-.26zm-10.08 8.63a2.64 2.64 0 1 0-1.49-1.37 2.63 2.63 0 0 0 1.49 1.37zm-8.44 10.25a2.68 2.68 0 0 0 .47 0 2.65 2.65 0 1 0-.47 0z"/><path class="cls-4" d="M236.14 36.07v-.54h1.11l-1.69-5.43-1.91 5.43h1.27v.54h-2.66v-.54h1l2.08-6-2.22-7.32h-.83v-.54h3.44v.54h-1.07l1.51 4.93 1.69-4.93h-1.22v-.54h2.61v.54h-1l-1.9 5.49 2.49 7.82h.81v.54zm4.05 0v-.54h1.07V22.22h-1.07v-.54h3.51v.54h-1.07v13.31h1.07v.54zm4.19 0v-.54h1.07V22.22h-1.07v-.54h3.51v.54h-1.07v13.31h1.07v.54zm-8.78 101.64l2.5-14.18h.32l2.58 14.18h.9v.54h-3.41v-.54h1.11l-1.83-10.08-1.82 10.08H237v.54h-2.34v-.54zm-1.24-13.85v.54h-1.07v13.31h1.07v.54h-3.51v-.54h1.07V124.4h-1.07v-.54zM282.06 76h.54v1h13.31v-1h.54v3.51h-.54v-1.09H282.6v1.07h-.54zm0 4.17h.54v1.07h13.31v-1.07h.54v3.51h-.54v-1.06H282.6v1.07h-.54zm0 4.19h.54v1.07h13.31v-1.07h.54v3.51h-.54V86.8H282.6v1.07h-.54zm-87.78-.75h-.54v-1.07h-13.31v1.07h-.54V80.1h.54v1.07h13.31V80.1h.54zm0-7.92h-.54v-1.11l-5.43 1.69 5.43 1.91v-1.27h.54v2.66h-.54v-1l-6-2.08-7.32 2.22v.83h-.54v-3.45h.54v1.07l4.93-1.51-4.92-1.65v1.22h-.54v-2.65h.54v1l5.49 1.9 7.82-2.47v-.81h.54zm83.52 23.45l.47.27-.54.92 11.51 6.67.54-.92.47.27-1.77 3-.46-.27.54-.92-11.56-6.64-.54.92-.47-.27zm6.88 15.72l-11-9.29.16-.28 13.54 4.91.45-.77.46.27-1.72 3-.47-.27.56-1-9.66-3.49 7.8 6.64.56-1 .47.27-1.18 2-.46-.27zm-83.37-58.8l-.47-.27.56-1-5.54-1.27 3.74 4.38.64-1.1.47.27-1.34 2.3-.47-.27.51-.87-4.13-4.81-7.45-1.76-.42.72-.47-.27 1.73-3 .47.27-.54.92 5 1.18-3.41-3.94-.61 1.05-.47-.27 1.31-2.25.47.27-.51.88 3.8 4.4 8 1.78.41-.7.47.27zM263 132.29l-4.94-13.52.28-.16 9.32 11 .77-.45.27.47-3 1.71-.27-.47 1-.56-6.63-7.81 3.48 9.64 1-.56.27.47-2 1.17-.27-.47zM216.24 42l-.27-.47 1-.56-4.18-3.85 1.07 5.65 1.1-.64.27.47-2.3 1.33-.27-.47.88-.51-1.2-6.23-5.59-5.23-.72.42-.27-.47 3-1.72.27.47-.92.53 3.78 3.51-1-5.12-1.05.61-.27-.47 2.26-1.31.27.47-.88.51 1.11 5.7 6.07 5.52.7-.4.27.47zm3.5-2.08l-.27-.47.92-.53-6.66-11.52-.92.53-.27-.47 3-1.76.27.47-.92.53 6.67 11.52.92-.53.27.47zm-12.5 88.82l9.62-10.74.27.17-5.32 13.39.76.47-.28.46-2.9-1.81.28-.46.94.59 3.78-9.52-6.88 7.59 1 .59-.28.46-2-1.23.29-.46zm6.27-12.42l-.28.46-.91-.56-7 11.3.91.56-.28.46-3-1.86.28-.46.91.56 7-11.3-.91-.56.28-.46zm-3.51-2.21l-.28.46-.9-.57-7 11.3.91.56-.28.46-3-1.86.28-.46.91.56 7-11.3-.91-.56.29-.46zm51.58-71.27l.29-.46.9.56 7-11.3-.9-.56.29-.46 3 1.86-.28.46-.91-.56-7 11.3.91.56-.28.46zM189 110.3l13.52-4.94.16.28-11 9.32.45.77-.47.27-1.71-3 .47-.27.56 1 7.81-6.64-9.64 3.48.56 1-.47.27-1.17-2 .47-.27zm11.38-8.01l-.47.27-.53-.92-11.52 6.67.53.92-.47.27-1.76-3 .47-.27.53.92 11.52-6.67-.53-.92.47-.27zm-2.1-3.63l-.47.27-.53-.92-11.52 6.67.53.92-.47.27-1.76-3 .47-.27.53.92 11.52-6.67-.53-.92.47-.27zm-2.1-3.66l-.47.27-.53-.92-11.52 6.67.53.92-.47.27-1.76-3 .47-.27.53.92 11.52-6.67-.53-.92.47-.27zm79.04-38.64l.47-.27.53.92 11.52-6.67-.53-.92.47-.27 1.76 3-.47.27-.53-.92-11.52 6.67.54.92-.47.27zm2.1 3.64l.47-.27.53.92L289.84 54l-.53-.92.47-.27 1.76 3-.47.27-.53-.92L279 61.84l.53.92-.47.27z"/><path class="cls-4" d="M238.17 142.84A62.87 62.87 0 1 1 301 80a62.94 62.94 0 0 1-62.83 62.84zm0-125.07a62.19 62.19 0 1 0 0 124.39 62.19 62.19 0 1 0 0-124.39z"/><path class="cls-4" d="M238.17 120.29A40.33 40.33 0 1 1 278.5 80a40.37 40.37 0 0 1-40.33 40.29zm0-80.22a39.89 39.89 0 1 0 0 79.78 39.89 39.89 0 0 0 0-79.78z"/><path class="cls-4" d="M216 55.18c0-1.58 1.09-3.85-2.27-6.37s-5.37-.34-6.39-.45-.7-2.71-.7-2.71-2.54.31-7.38-3.43c3.83 4.77 3.58 7.31 3.58 7.31s2.6-.36 2.72.65-2 3.07.57 6.38 4.83 2.16 6.41 2.14 1.75-.19 4.2 2.22 10.47 13.29 13 15.76a5.36 5.36 0 0 0 5.72 1 5.36 5.36 0 0 0-1.13-5.7c-2.51-2.46-13.55-10.27-16-12.67S216 56.76 216 55.18zm-3.11-5.74a4.42 4.42 0 0 1-4.92.33s1.92-2.4 4.95-.33zm-.49 1.76c-.61 1.31.32 4.24.32 4.24s-2.95-.88-4.24-.24c0 0 .88-2.49.13-3.79 1.34.72 3.81-.21 3.81-.21zm-5.4-.4a4.42 4.42 0 0 1-.23 4.92c-2.14-2.99.23-4.92.23-4.92zm.81 6.11s2.28-2.53 5.25.39c-.01 0-1.79 1.78-5.26-.39zm25.64 15.77a3.74 3.74 0 0 1 .8 3.84 3.75 3.75 0 0 1-3.85-.73c-1.65-1.62-8-10.92-8.88-11.76.85.84 10.27 7.03 11.93 8.65zm-18.83-17c-3-2.91-.49-5.24-.49-5.24 2.24 3.45.49 5.26.49 5.26z"/><path class="cls-4" d="M246.56 55.47c-1.27-3-4.69-2.21-4.69-2.21-.21-3.79-2.79-4.06-2.79-4.06l.05-1.05c.37-.16.69-1.11.69-1.11-1.21-.68-1.25-3.85-1.3-4.69a4.34 4.34 0 0 0-.12-1 4.44 4.44 0 0 0-.12 1c-.05.84-.09 4-1.3 4.69 0 0 .32.95.68 1.11l.05 1.05s-2.58.26-2.79 4.06c0 0-3.43-.74-4.69 2.21s1.23 5 2.13 5.65c0 0-.34 1.31.87 1.46a1.16 1.16 0 0 0 1.32-1.11s3 1.11 3 3.32a7.74 7.74 0 0 1-1.21 4.8c-.74.84-1.58 3.69.84 5.11v.73a4.06 4.06 0 1 0 2.53 0v-.73c2.42-1.42 1.58-4.27.84-5.11a7.74 7.74 0 0 1-1.21-4.8c0-2.21 3-3.32 3-3.32a1.16 1.16 0 0 0 1.32 1.11c1.21-.16.87-1.46.87-1.46.79-.68 3.29-2.69 2.03-5.65zm-9.74-2.93c-.14-.62-.52-.66-.28-1.28s1.85-1.14 1.85-1.14 1.61.52 1.85 1.14-.14.66-.28 1.28.57.9.57.9c-1.09.33-2.13 2.8-2.13 2.8s-1-2.47-2.13-2.8c-.02 0 .73-.28.55-.9zm-3.1 7.58a3 3 0 0 1-2.72-3.23 2.81 2.81 0 0 1 3-2.59.85.85 0 0 0 .66 1 1.05 1.05 0 0 0 1.26-.44s1.39 1.39 1 2.81a3.26 3.26 0 0 1-3.19 2.45zm6.56 19.16a1.9 1.9 0 1 1-1.9-1.9 1.9 1.9 0 0 1 1.9 1.9zm-.19-7.73a2.17 2.17 0 0 1-1 2l-.71-.43-.71.43a2.17 2.17 0 0 1-1-2c.24-1.19 1.52-1.94 1.71-2.85.2.91 1.48 1.67 1.71 2.85zm-1.71-8.12a17.8 17.8 0 0 0-2.53-2.69s1.16-.74 1.32-1.26l1.21.84 1.21-.84c.16.53 1.32 1.26 1.32 1.26a17.85 17.85 0 0 0-2.52 2.69zm4.62-3.31a3.26 3.26 0 0 1-3.19-2.44c-.38-1.42 1-2.81 1-2.81a1.05 1.05 0 0 0 1.27.44.85.85 0 0 0 .66-1 2.81 2.81 0 0 1 3 2.59 3 3 0 0 1-2.74 3.22z"/></g></g></svg>